<svg xmlns="http://www.w3.org/2000/svg" width="24" height="24" viewBox="0 0 24 24">
  <g id="Group_8128" data-name="Group 8128" transform="translate(6384 1528)">
    <rect id="Rectangle_49246" data-name="Rectangle 49246" width="24" height="24" transform="translate(-6384 -1528)" fill="#f2f4f7" opacity="0"/>
    <g id="chat" transform="translate(-6380 -1524)">
      <path id="Path_93435" data-name="Path 93435" d="M133.74,126.761a.54.54,0,0,1,.376.152,2.506,2.506,0,0,0,2.472.582,4.789,4.789,0,0,1-.2-3.67,6.3,6.3,0,0,0,.059-4.543,5.826,5.826,0,0,0-2.838-3.074,6.984,6.984,0,0,1-7.782,8.2,5.93,5.93,0,0,0,5.046,2.977,5.849,5.849,0,0,0,2.634-.573A.539.539,0,0,1,133.74,126.761Z" transform="translate(-120.844 -111.606)" fill="#c1c5cb"/>
      <path id="Path_93436" data-name="Path 93436" d="M6.023,0A5.916,5.916,0,0,0,0,5.878,5.846,5.846,0,0,0,.465,8.19c0,.011.009.021.013.032a4.789,4.789,0,0,1-.2,3.67A2.506,2.506,0,0,0,2.75,11.31a.54.54,0,0,1,.608-.1,5.841,5.841,0,0,0,2.634.573A5.851,5.851,0,0,0,11.8,5.893,5.927,5.927,0,0,0,6.023,0ZM2.754,6.773a.853.853,0,1,1,.855-.853A.854.854,0,0,1,2.754,6.773Zm3.148,0a.853.853,0,1,1,.855-.853A.854.854,0,0,1,5.9,6.773Zm3.148,0A.853.853,0,1,1,9.9,5.919.854.854,0,0,1,9.05,6.773Z" fill="#c1c5cb"/>
    </g>
  </g>
</svg>
