<svg xmlns="http://www.w3.org/2000/svg" width="24" height="24" viewBox="0 0 24 24">
  <g id="Group_8128" data-name="Group 8128" transform="translate(6384 1528)">
    <rect id="Rectangle_49246" data-name="Rectangle 49246" width="24" height="24" transform="translate(-6384 -1528)" fill="#f2f4f7" opacity="0"/>
    <g id="documents-folder" transform="translate(-6380.061 -1524)">
      <g id="Group_96007" data-name="Group 96007" transform="translate(0.126)">
        <path id="Path_93430" data-name="Path 93430" d="M13.463,12.9a.693.693,0,0,0-.691-.589h-5.6l-1.016-1.2a1.149,1.149,0,0,0-.864-.412H1.658a.888.888,0,0,0-.673.32.906.906,0,0,0-.195.727l.1.569H.823a.688.688,0,0,0-.688.794l1.129,7.326a.9.9,0,0,0,.894.765H13.878a.7.7,0,0,0,.528-.242.691.691,0,0,0,.161-.555Z" transform="translate(-0.126 -5.197)" fill="#c1c5cb"/>
        <path id="Path_93431" data-name="Path 93431" d="M15.992,4.351H11.614a.576.576,0,0,0,0,1.15h4.378a.576.576,0,0,0,0-1.15Z" transform="translate(-5.442 -2.114)" fill="#c1c5cb"/>
        <path id="Path_93432" data-name="Path 93432" d="M29.027,11.961a.673.673,0,0,0-.5-.239H27.28l.283,2.62.675,4.576.945-6.423A.679.679,0,0,0,29.027,11.961Z" transform="translate(-13.319 -5.695)" fill="#c1c5cb"/>
        <path id="Path_93433" data-name="Path 93433" d="M7.938,1.057h7.642V6.245h1.057V.672A.68.68,0,0,0,15.962,0H7.51a.727.727,0,0,0-.721.737V4.753H7.938Z" transform="translate(-3.363)" fill="#c1c5cb"/>
        <path id="Path_93434" data-name="Path 93434" d="M16,8.46H11.625a.567.567,0,0,0-.535.462,1.884,1.884,0,0,1,.972.6l.08.086H16A.575.575,0,0,0,16,8.46Z" transform="translate(-5.453 -4.11)" fill="#c1c5cb"/>
      </g>
    </g>
  </g>
</svg>
